<?xml version="1.0" encoding="UTF-8" standalone="no"?>
<!-- Created with Inkscape (http://www.inkscape.org/) -->

<svg
   xmlns:osb="http://www.openswatchbook.org/uri/2009/osb"
   xmlns:dc="http://purl.org/dc/elements/1.1/"
   xmlns:cc="http://creativecommons.org/ns#"
   xmlns:rdf="http://www.w3.org/1999/02/22-rdf-syntax-ns#"
   xmlns:svg="http://www.w3.org/2000/svg"
   xmlns="http://www.w3.org/2000/svg"
   xmlns:sodipodi="http://sodipodi.sourceforge.net/DTD/sodipodi-0.dtd"
   xmlns:inkscape="http://www.inkscape.org/namespaces/inkscape"
   width="100mm"
   height="55mm"
   viewBox="0 0 100 55"
   version="1.1"
   id="svg8"
   inkscape:version="0.92.4 (5da689c313, 2019-01-14)"
   sodipodi:docname="drawing.svg">
  <defs
     id="defs2">
    <linearGradient
       id="linearGradient7011"
       osb:paint="gradient">
      <stop
         style="stop-color:#000000;stop-opacity:1;"
         offset="0"
         id="stop7007" />
      <stop
         style="stop-color:#000000;stop-opacity:0;"
         offset="1"
         id="stop7009" />
    </linearGradient>
  </defs>
  <sodipodi:namedview
     id="base"
     pagecolor="#ffffff"
     bordercolor="#666666"
     borderopacity="1.0"
     inkscape:pageopacity="0.0"
     inkscape:pageshadow="2"
     inkscape:zoom="0.55436508"
     inkscape:cx="910.58991"
     inkscape:cy="543.23926"
     inkscape:document-units="mm"
     inkscape:current-layer="layer1"
     showgrid="false"
     showguides="false"
     inkscape:snap-grids="false"
     inkscape:snap-page="true"
     inkscape:window-width="1920"
     inkscape:window-height="1003"
     inkscape:window-x="-9"
     inkscape:window-y="-9"
     inkscape:window-maximized="1" />
  <metadata
     id="metadata5">
    <rdf:RDF>
      <cc:Work
         rdf:about="">
        <dc:format>image/svg+xml</dc:format>
        <dc:type
           rdf:resource="http://purl.org/dc/dcmitype/StillImage" />
        <dc:title></dc:title>
      </cc:Work>
    </rdf:RDF>
  </metadata>
  <g
     inkscape:label="Layer 1"
     inkscape:groupmode="layer"
     id="layer1"
     transform="translate(0,-242)">
    <flowRoot
       xml:space="preserve"
       id="flowRoot10"
       style="font-style:normal;font-weight:normal;font-size:40px;line-height:1.25;font-family:sans-serif;letter-spacing:0px;word-spacing:0px;fill:#000000;fill-opacity:1;stroke:none"
       transform="scale(0.26458333)"><flowRegion
         id="flowRegion12"><rect
           id="rect14"
           width="437.14285"
           height="154.28572"
           x="185.71428"
           y="591.09113" /></flowRegion><flowPara
         id="flowPara16" /></flowRoot>    <text
       xml:space="preserve"
       style="font-style:normal;font-variant:normal;font-weight:normal;font-stretch:normal;font-size:52.37580872px;line-height:1.25;font-family:'Calisto MT';-inkscape-font-specification:'Calisto MT, Normal';font-variant-ligatures:normal;font-variant-caps:normal;font-variant-numeric:normal;font-feature-settings:normal;text-align:start;letter-spacing:0px;word-spacing:0px;writing-mode:lr-tb;text-anchor:start;fill:#000000;fill-opacity:0.0360278;stroke:none;stroke-width:0.27279168"
       x="17.107744"
       y="324.33298"
       id="text20"
       transform="scale(1.1580594,0.86351356)"><tspan
         sodipodi:role="line"
         id="tspan18"
         x="17.107744"
         y="324.33298"
         style="font-style:normal;font-variant:normal;font-weight:normal;font-stretch:normal;font-size:52.37580872px;font-family:'Calisto MT';-inkscape-font-specification:'Calisto MT, Normal';font-variant-ligatures:normal;font-variant-caps:normal;font-variant-numeric:normal;font-feature-settings:normal;text-align:start;writing-mode:lr-tb;text-anchor:start;fill:#000000;fill-opacity:0.0360278;stroke-width:0.27279168">20</tspan></text>
    <path
       style="fill:#000000;fill-opacity:0.0360278;stroke:#000000;stroke-width:0.20608652px;stroke-linecap:butt;stroke-linejoin:miter;stroke-opacity:1"
       d="M 102.13828,237.25444 Z"
       id="path38"
       inkscape:connector-curvature="0" />
    <path
       style="fill:#000000;fill-opacity:0.0360278;stroke:#000000;stroke-width:0.15038642px;stroke-linecap:butt;stroke-linejoin:miter;stroke-opacity:1"
       d="m 77.997156,243.2004 c -7.06106,0.0905 -13.89904,1.90815 -20.75489,3.2838 -4.7045,0.85435 -9.60186,0.99317 -14.299003,0.0199 -6.370878,-1.06982 -12.613775,-3.0406 -19.137288,-3.13868 -6.858514,-0.24183 -13.698324,0.83691 -20.3014105,2.43527 -0.199079,0.83315 -0.180333,1.69969 -0.411564,2.52754 -0.723292,4.65366 -0.995498,9.47477 0.27855,14.07634 2.836253,10.33178 8.9854175,19.98808 17.9127375,26.71758 5.198278,3.94145 15.372544,8.44127 21.511105,7.87785 8.465213,0.26731 7.744013,0.08 17.090133,0.0513 5.81286,-0.20353 9.94704,-1.41824 14.87169,-4.35649 8.97232,-5.07928 15.73993,-13.14384 19.7931,-22.11607 2.16971,-4.7993 3.3704,-9.99911 3.2975,-15.21773 -0.0514,-2.53118 -0.21666,-5.05919 -0.32622,-7.58869 -0.047,-0.91575 -0.0895,-1.8317 -0.13333,-2.74759 -6.4859,-0.4076 -12.86785,-1.88229 -19.39111,-1.82442 z"
       id="path42"
       inkscape:connector-curvature="0"
       sodipodi:nodetypes="ccccccccccccccccc" />
    <path
       style="fill:#000000;fill-opacity:0.0360278;stroke:#552200;stroke-width:0.27127686"
       d="M 37.771978,296.36147 C 34.582477,295.73261 30.226882,294.08289 26.473152,292.08195 16.759419,286.904 8.8160625,277.31088 4.7089615,265.79753 c -1.638941,-4.5944 -2.082466,-7.34903 -1.900119,-11.80118 0.08271,-2.01931 0.312428,-4.64708 0.510495,-5.83948 l 0.360122,-2.16799 0.99448,-0.24351 c 6.4978465,-1.59104 9.9190315,-1.97858 17.2702095,-1.95631 6.457605,0.0196 6.896472,0.0539 10.663409,0.8333 11.253158,2.32847 12.059168,2.46086 15.886718,2.60929 4.49554,0.17434 6.34177,-0.042 14.00559,-1.64149 8.7257,-1.82105 10.49675,-2.04814 15.98841,-2.05007 3.77363,-0.001 6.1454,0.15807 10.24249,0.68835 2.93243,0.37954 6.04448,0.76793 6.91566,0.86309 l 1.58396,0.17302 0.20774,5.15264 c 0.11426,2.83396 0.12886,6.39177 0.0324,7.90626 -0.60336,9.47824 -6.22661,20.34 -14.51216,28.03137 -6.15886,5.71721 -13.49197,9.49161 -19.89666,10.24096 -1.31751,0.15414 -6.94856,0.26998 -12.62772,0.25975 -8.772908,-0.0158 -10.597431,-0.087 -12.662058,-0.49406 z m 31.534658,-15.60829 c 2.47396,-0.48993 4.37047,-1.47504 6.06691,-3.15136 1.67041,-1.65061 2.33501,-2.83092 3.24325,-5.75991 1.33249,-4.29717 1.56175,-10.15779 0.55769,-14.25585 -1.43407,-5.85309 -5.88387,-9.22805 -12.16697,-9.22805 -6.7807,0 -11.50236,3.65357 -13.38709,10.35881 -0.72879,2.59276 -0.7533,10.77723 -0.0395,13.18937 1.47106,4.97122 4.46762,7.91856 8.98272,8.83519 2.31135,0.46924 4.41444,0.47292 6.74299,0.0118 z m -22.38877,-3.72575 c 1.00381,-1.78275 1.82512,-3.29811 1.82512,-3.36747 0,-0.0693 -0.55795,-0.12609 -1.23989,-0.12609 -1.09747,0 -1.30496,0.0984 -1.80649,0.85678 -0.31164,0.47123 -0.90009,1.14979 -1.30767,1.50793 -0.73402,0.64495 -0.79752,0.65192 -6.682143,0.73321 -3.267595,0.0451 -6.680217,0.0451 -7.583605,0 l -1.642522,-0.0821 4.027759,-3.27213 c 11.301261,-9.18111 13.948511,-12.46442 13.642971,-16.921 -0.21117,-3.08015 -1.85657,-5.3614 -4.80296,-6.65904 -4.447743,-1.95886 -9.774042,-1.7182 -14.473526,0.65395 l -1.886085,0.95204 -0.632735,2.52652 c -0.348004,1.38959 -0.696318,2.67404 -0.774028,2.85434 -0.100552,0.23328 0.209347,0.32373 1.074709,0.31367 1.155667,-0.0134 1.273707,-0.0898 2.378986,-1.53918 1.571847,-2.0612 3.840246,-3.16716 6.496066,-3.16716 2.531793,0 3.924041,0.45582 5.292399,1.73272 1.878642,1.75308 2.175228,4.53878 0.808656,7.59537 -1.221084,2.73118 -5.819625,7.24823 -13.970567,13.72301 -3.735688,2.96748 -4.419702,3.62313 -4.419702,4.23641 v 0.72557 l 11.925073,-0.018 11.925074,-0.018 1.82511,-3.24137 z"
       id="path929"
       inkscape:connector-curvature="0" />
    <path
       style="fill:#000000;fill-opacity:0.0360278;stroke:#552200;stroke-width:0.27127686"
       d="m 64.019776,278.54598 c -1.85536,-0.78756 -3.25928,-2.7414 -4.26094,-5.92998 -0.558,-1.77627 -0.80524,-10.83096 -0.37773,-13.83327 0.83893,-5.8915 2.84452,-8.32674 6.85768,-8.32674 2.08293,0 3.20959,0.46241 4.4642,1.83219 1.88154,2.05428 2.71062,5.54328 2.92975,12.32923 0.11095,3.43608 0.042,5.15836 -0.27444,6.85365 -0.51329,2.74998 -1.84437,5.48496 -3.08986,6.34877 -1.86154,1.29108 -4.26091,1.56991 -6.24866,0.72615 z"
       id="path931"
       inkscape:connector-curvature="0" />
    <path
       style="fill:#000000;fill-opacity:0.0360278;stroke:#552200;stroke-width:0.27127686"
       d="M 39.461289,296.35615 C 37.04012,296.07177 32.311466,294.57877 29.186435,293.11202 21.180468,289.35436 14.342313,283.08955 9.3448065,274.934 c -2.685971,-4.3833 -5.102095,-10.47236 -5.92399,-14.92949 -0.523081,-2.83667 -0.413784,-8.40409 0.236242,-12.03381 l 0.327665,-1.82967 2.665853,-0.59354 c 5.0525875,-1.12494 7.9487305,-1.38575 15.3295865,-1.38049 6.331685,0.004 7.278867,0.0646 10.206471,0.648 13.342662,2.65867 12.721312,2.56877 17.819122,2.57814 5.14323,0.009 4.40247,0.11737 17.11758,-2.49335 4.16241,-0.85465 4.29039,-0.86425 11.50525,-0.86356 6.48931,5.8e-4 7.90005,0.0816 12.759,0.73229 3.00464,0.40237 5.51911,0.78403 5.5877,0.84814 0.0686,0.0641 0.13476,3.4509 0.14703,7.52623 0.0208,6.89029 -0.0237,7.59245 -0.6338,10.0173 -3.89878,15.49484 -16.77905,29.17194 -30.79396,32.69901 -2.05746,0.5178 -3.02727,0.56417 -13.30357,0.6361 -6.09638,0.0427 -11.914745,-0.0199 -12.929697,-0.13915 z m 29.621457,-15.35182 c 2.86561,-0.56727 4.63044,-1.48032 6.53067,-3.37871 1.96097,-1.95908 2.84875,-3.81259 3.74034,-7.80915 0.83352,-3.7362 0.83644,-9.41634 0.006,-12.3621 -1.81428,-6.43855 -6.64631,-9.75599 -13.49954,-9.26814 -5.97021,0.425 -9.94916,3.49387 -12.11572,9.34458 -1.12423,3.03594 -1.21071,12.56915 -0.1394,15.36612 1.78666,4.66455 4.63361,7.17413 9.18484,8.09641 2.37105,0.48048 3.90725,0.48317 6.29247,0.011 z m -21.93969,-3.80848 c 1.04927,-1.87476 1.83106,-3.52465 1.73729,-3.66644 -0.0938,-0.14179 -0.67388,-0.25779 -1.28914,-0.25779 -1.16518,0 -1.7496,0.38436 -2.94406,1.93631 -0.78993,1.02633 -1.973237,1.17591 -9.454051,1.19504 l -6.113557,0.0156 4.42986,-3.63182 c 6.569881,-5.38631 10.466858,-9.27727 11.781578,-11.7634 0.97944,-1.8521 1.06486,-2.19012 1.04339,-4.12877 -0.0392,-3.53858 -1.53543,-5.82197 -4.818372,-7.35312 -4.424195,-2.06344 -10.21034,-1.76976 -15.112596,0.76705 l -1.636827,0.84702 -0.722178,2.76214 c -0.397198,1.51917 -0.674458,2.89592 -0.616132,3.05944 0.05833,0.16352 0.565947,0.29732 1.128048,0.29732 0.903714,0 1.250162,-0.22279 2.993239,-1.9248 2.19465,-2.14294 3.636204,-2.79681 6.160309,-2.79421 2.200124,0.002 3.540903,0.46586 4.823306,1.66778 1.853119,1.7368 2.154812,4.35515 0.838655,7.27857 -1.036012,2.30117 -5.284866,6.5417 -12.376581,12.35234 -5.360798,4.39241 -6.033244,5.06442 -6.033244,6.02935 v 0.73109 l 12.136642,-0.005 12.136641,-0.005 1.90778,-3.40865 z"
       id="path933"
       inkscape:connector-curvature="0" />
    <path
       style="fill:#000000;fill-opacity:0.0360278;stroke:#552200;stroke-width:0.27127686"
       d="m 64.457476,278.36073 c -2.00863,-0.81309 -3.3686,-2.60039 -4.37973,-5.75593 -0.42084,-1.31339 -0.50107,-2.58596 -0.50358,-7.98739 -0.003,-5.83073 0.0545,-6.61916 0.61833,-8.52307 0.76701,-2.59 1.78372,-4.0144 3.41619,-4.78604 1.44028,-0.68079 3.48768,-0.77689 4.85658,-0.22796 1.21812,0.48847 2.57712,1.87297 3.26294,3.32414 1.38293,2.92625 2.15906,12.74387 1.33934,16.94194 -0.52268,2.67689 -1.67681,5.11724 -2.89148,6.11393 -1.56293,1.28245 -3.87532,1.64653 -5.71859,0.90038 z"
       id="path935"
       inkscape:connector-curvature="0" />
    <path
       style="fill:#000000;fill-opacity:0.0360278;stroke:#000000;stroke-width:0.27127686"
       d="m 64.844926,278.17398 c -1.88251,-0.67317 -3.19849,-2.19346 -4.20466,-4.85742 -0.62795,-1.66257 -0.6611,-2.0867 -0.66672,-8.53017 -0.006,-7.10755 0.20184,-8.73823 1.39135,-10.90544 1.44812,-2.63837 4.85762,-3.67419 7.43951,-2.26014 2.97725,1.63058 4.16072,5.74228 4.19372,14.5701 0.0173,4.63829 -0.0167,4.95087 -0.77394,7.10963 -0.90893,2.59113 -2.01887,4.01546 -3.67792,4.71966 -1.30828,0.55531 -2.44624,0.60259 -3.70134,0.15378 z"
       id="path939"
       inkscape:connector-curvature="0" />
    <path
       style="fill:#000000;fill-opacity:0.0360278;stroke:#000000;stroke-width:0.27127686"
       d="m 21.523226,279.84928 c 0,-0.68288 0.747638,-1.40313 5.437053,-5.23783 8.806531,-7.20143 12.67344,-11.33402 13.384726,-14.30433 0.806563,-3.36821 -0.167766,-5.99325 -2.75023,-7.40968 -1.182152,-0.64838 -1.618939,-0.73466 -3.724446,-0.73568 -2.04948,-10e-4 -2.611922,0.10288 -3.995648,0.73789 -1.038601,0.47663 -1.980071,1.17501 -2.651496,1.96686 -1.379548,1.627 -1.738205,1.88345 -2.634126,1.88345 h -0.755522 l 0.703453,-2.62174 0.703454,-2.62175 1.438629,-0.76563 c 5.825713,-3.10041 13.583461,-2.63164 17.128043,1.03499 2.73875,2.83304 2.79676,6.73639 0.15506,10.43343 -1.431593,2.0035 -6.26347,6.51035 -11.719585,10.93123 -3.211538,2.60219 -4.098138,3.45143 -3.745303,3.58749 0.621004,0.23947 11.816332,0.22108 13.913483,-0.0229 1.554165,-0.18077 1.750875,-0.28435 2.946465,-1.55145 0.95887,-1.01622 1.47524,-1.35773 2.05282,-1.35766 0.42443,5e-5 0.77169,0.0578 0.77169,0.12833 0,0.0705 -0.72355,1.48667 -1.60789,3.14698 l -1.6079,3.01875 H 33.24459 c -6.931131,0 -11.721364,-0.0984 -11.721364,-0.2408 z"
       id="path941"
       inkscape:connector-curvature="0" />
    <path
       style="fill:#801d00;fill-opacity:1;stroke:#000000;stroke-width:0.27127686"
       d="m 22.351043,279.65415 c -0.192924,-0.0727 -0.35077,-0.22556 -0.35077,-0.33957 0,-0.11402 2.24142,-2.07575 4.980934,-4.35941 8.548449,-7.12599 12.725022,-11.51413 13.526749,-14.21195 0.428689,-1.44255 0.355762,-4.13326 -0.142221,-5.24737 -0.555726,-1.24329 -1.654201,-2.32354 -3.039771,-2.98935 -0.919273,-0.44174 -1.513652,-0.5093 -3.788317,-0.4306 -3.351466,0.11595 -4.355979,0.53537 -6.616657,2.76273 -0.920569,0.90699 -1.909251,1.64908 -2.197072,1.64908 -0.580355,0 -0.565723,-0.14695 0.320459,-3.21844 0.442483,-1.53364 0.55646,-1.67703 1.870476,-2.35315 6.77081,-3.48391 15.404993,-2.12403 17.947203,2.82668 1.18362,2.30499 0.76954,5.57913 -1.02597,8.11244 -1.366019,1.92732 -5.3884,5.752 -10.821636,10.28973 -2.662344,2.22355 -4.840625,4.20426 -4.840625,4.4016 0,0.23988 0.531867,0.42089 1.604916,0.54618 2.137344,0.24957 12.939676,-0.0311 13.828965,-0.3593 0.38585,-0.1424 1.28869,-0.80255 2.00632,-1.467 2.23295,-2.06746 2.41729,-1.59881 0.65954,1.67665 l -1.54808,2.88473 -11.011839,-0.0207 c -6.056509,-0.0114 -11.16968,-0.0802 -11.362604,-0.15296 z"
       id="path7175"
       inkscape:connector-curvature="0" />
    <path
       style="fill:#801d00;fill-opacity:1;stroke:#000000;stroke-width:0.27127686"
       d="m 62.408986,280.41878 c -3.60233,-0.91501 -5.80402,-2.6653 -7.46344,-5.93324 -1.37464,-2.70711 -1.59462,-4.25109 -1.44333,-10.13037 0.11129,-4.32482 0.2221,-5.34754 0.71819,-6.62841 2.37107,-6.12195 6.61149,-9.10651 12.93839,-9.10651 6.53731,0 11.03559,4.05375 12.07678,10.88332 0.76927,5.04591 -0.23089,12.01825 -2.24301,15.63656 -0.64902,1.16711 -2.26933,2.84789 -3.52174,3.65317 -2.84555,1.82964 -7.54144,2.51968 -11.06184,1.62548 z m 5.75225,-1.40496 c 2.69336,-0.63381 4.42202,-2.99642 5.352,-7.31474 0.39293,-1.82457 0.45097,-3.10707 0.32042,-7.08071 -0.24184,-7.36121 -1.16191,-10.82019 -3.43567,-12.91634 -3.01659,-2.78094 -8.17524,-1.64139 -9.94173,2.19615 -1.25324,2.72255 -1.46884,4.5837 -1.34808,11.6371 0.1074,6.27324 0.14337,6.63303 0.83352,8.33584 1.7962,4.43183 4.37743,6.04683 8.21954,5.1427 z"
       id="path7219"
       inkscape:connector-curvature="0" />
    <path
       style="fill:#801d00;fill-opacity:1;stroke:#000000;stroke-width:0.25775337"
       id="path7229"
       d="m 96.393046,260.4342 c 0.009,-2.34852 0.005,-4.69727 0.003,-7.04589 -0.009,-1.75129 -0.023,-3.4845 0.0774,-5.21667 0.12065,-1.49373 0.34236,-2.88669 0.53857,-4.30911 0.16669,-1.27051 0.57015,-1.73929 0.98237,-2.27296 0.28314,-0.4491 0.52015,-1.094 0.77227,-1.66698 0,0 1.386994,0.32838 1.386994,0.32838 v 0 c -0.251274,0.61583 -0.514804,1.20398 -0.777044,1.77484 -0.38552,0.46191 -0.80229,0.8244 -0.97608,1.97339 -0.1896,1.4045 -0.4195,2.76196 -0.54022,4.23331 -0.10181,1.71122 -0.0882,3.42446 -0.0824,5.1558 -0.002,2.34862 -0.006,4.69737 0.003,7.04589 0,0 -1.38828,0 -1.38828,0 z"
       inkscape:connector-curvature="0" />
    <path
       style="fill:#801d00;fill-opacity:1;stroke:#000000;stroke-width:0.15038642"
       id="path7233"
       d="m 46.407966,247.38065 c 0.85446,0.001 1.70892,5.5e-4 2.56338,4.4e-4 0.63058,-2.9e-4 1.26116,-2.9e-4 1.89175,-4.4e-4 0.56103,-4e-5 1.12207,-3e-5 1.68311,-3e-5 0.56013,0 1.12027,0 1.68041,1e-5 0.28054,0 0.56109,0 0.84164,0 0,0 -1.37052,0.20286 -1.37052,0.20286 v 0 c -0.28055,0 -0.5611,0 -0.84166,0 -0.56015,0 -1.12031,0 -1.68046,0 -0.56089,0 -1.12179,10e-6 -1.68268,-3e-5 -0.62883,-6e-5 -1.25766,-1.4e-4 -1.88649,-4.4e-4 -0.85655,-2.9e-4 -1.71311,-0.001 -2.56967,4.4e-4 0,0 1.37119,-0.20296 1.37119,-0.20296 z"
       inkscape:connector-curvature="0" />
    <path
       style="fill:#801d00;fill-opacity:1;stroke:#000000;stroke-width:0.15038642"
       id="path7243"
       d="m 43.977076,248.54242 c 0.0797,-0.79693 0.0455,-1.59948 0.0287,-2.39853 0,0 12.43716,0 12.43716,0 v 0 c -0.0169,0.79905 -0.0511,1.6016 0.0286,2.39853 0,0 -12.49448,0 -12.49448,0 z"
       inkscape:connector-curvature="0" />
    <path
       style="fill:#801d00;fill-opacity:1;stroke:#000000;stroke-width:0.24257877"
       id="path7229-1"
       d="m 4.4581725,261.45652 c -0.0085,-2.16165 -0.0051,-4.3235 -0.0028,-6.48523 0.009,-1.61193 0.02218,-3.20722 -0.07451,-4.80157 -0.116105,-1.37486 -0.329447,-2.65698 -0.518261,-3.96621 -0.160406,-1.16941 -0.548656,-1.60088 -0.945329,-2.09209 -0.27246,-0.41337 -0.500541,-1.00695 -0.743151,-1.53434 0,0 -1.33468698,0.30225 -1.33468698,0.30225 v 0 c 0.24178998,0.56683 0.49538098,1.10818 0.74773398,1.63361 0.370986,0.42516 0.772045,0.7588 0.939275,1.81636 0.182449,1.29274 0.403684,2.54219 0.519857,3.89646 0.09797,1.57505 0.08486,3.15196 0.07927,4.74553 0.0017,2.16173 0.0056,4.32358 -0.0028,6.48523 0,0 1.335926,0 1.335926,0 z"
       inkscape:connector-curvature="0" />
    <path
       style="fill:#801d00;fill-opacity:1;stroke-width:0.26458332"
       id="path74"
       d="m 3.9893455,249.94017 c -0.06737,0.27275 -0.107728,0.55103 -0.13471,0.83037 -0.01693,0.19017 -0.01947,0.38113 -0.02053,0.57191 0.0055,0.17264 -0.03453,0.3418 -0.05701,0.51203 -0.02249,0.16778 -0.01773,0.33737 -0.03257,0.50563 -0.02934,0.16676 -0.05398,0.33377 -0.067,0.50262 -0.01061,0.1673 -0.01101,0.33501 -0.01156,0.50258 -1.95e-4,0.16868 1.51e-4,0.33737 2.65e-4,0.50605 1.54e-4,0.16876 1.83e-4,0.33751 2.01e-4,0.50627 1.3e-5,0.16874 8e-6,0.33749 8e-6,0.50623 -3e-6,0.16874 -3e-6,0.33748 -3e-6,0.50622 0,0.16874 0,0.33748 0,0.50623 0.0013,0.15778 -0.0096,0.31517 0.0191,0.47094 0.02487,0.15144 0.05718,0.30065 0.09165,0.45014 0.04713,0.14357 0.106442,0.28266 0.154104,0.42599 0.05362,0.16182 0.05457,0.33281 0.07642,0.49998 0.02,0.15755 0.05912,0.30916 0.102822,0.46127 0.04301,0.15534 0.05269,0.31648 0.05915,0.47668 0.0048,0.16829 0.0039,0.33667 0.0037,0.505 -2.64e-4,0.16888 -5.29e-4,0.33776 -7.94e-4,0.50664 -9.5e-5,0.16875 -9.5e-5,0.33751 -10e-5,0.50627 0,0.11249 2e-6,0.22498 2e-6,0.33748 0,0 -1.117486,0.56939 -1.117486,0.56939 v 0 c 0,-0.1125 -2e-6,-0.22499 -2e-6,-0.33749 0,-0.16878 -3e-6,-0.33756 7.1e-5,-0.50634 9.3e-5,-0.16891 2.54e-4,-0.33782 5.29e-4,-0.50674 2.65e-4,-0.16693 0.0011,-0.33389 -0.0021,-0.50081 -0.0043,-0.15064 -0.0094,-0.30255 -0.04611,-0.44951 -0.04337,-0.1574 -0.08835,-0.31239 -0.108468,-0.47519 -0.0287,-0.15984 -0.01976,-0.32516 -0.06751,-0.48214 -0.04679,-0.14765 -0.110374,-0.28917 -0.159332,-0.43619 -0.03362,-0.15079 -0.07293,-0.29931 -0.09455,-0.45253 -0.03435,-0.16356 -0.03282,-0.32662 -0.02894,-0.49346 0,-0.16874 0,-0.33748 0,-0.50622 0,-0.16874 0,-0.33748 2e-6,-0.50622 0,-0.16874 3e-6,-0.33748 -2e-6,-0.50622 -1.4e-5,-0.16873 -3e-5,-0.33745 -1.57e-4,-0.50618 -1.42e-4,-0.1688 -5.29e-4,-0.3376 -5.29e-4,-0.5064 1.85e-4,-0.16999 5.8e-5,-0.34006 0.0079,-0.5099 0.01,-0.17118 0.02724,-0.34182 0.06356,-0.5097 0.03001,-0.16608 0.01,-0.33703 0.03305,-0.5045 0.01847,-0.16701 0.06005,-0.33154 0.06376,-0.49918 7.94e-4,-0.19486 0.0029,-0.38991 0.01968,-0.58417 0.02679,-0.2829 0.06961,-0.56367 0.124436,-0.84252 0,0 1.128618,-0.54431 1.128618,-0.54431 z"
       inkscape:connector-curvature="0" />
    <path
       style="fill:#801d00;fill-opacity:1;stroke-width:0.26458332"
       id="path86"
       d="m 97.734606,259.97664 c 0.0712,0.22802 0.14366,0.4698 0.0321,0.69446 -0.28442,0.31388 -0.10116,0.12349 -0.9791,0.58076 -0.0331,0.0173 -0.1126,-0.0149 -0.13834,-0.0315 -0.0517,-0.0334 -0.0632,-0.0624 -0.096,-0.11225 -0.069,-0.14956 -0.07,-0.31672 -0.074,-0.47829 -0.002,-0.17052 -2.6e-4,-0.34106 5.3e-4,-0.51159 -0.005,-0.42505 -0.0811,-0.13819 0.89665,-0.5172 0.0187,-0.007 -2.7e-4,0.0401 -5.3e-4,0.0602 -1.4e-4,0.0229 -2.3e-4,0.0458 -2.7e-4,0.0687 -5.2e-4,0.16284 -7.9e-4,0.32568 -7.9e-4,0.48851 -4e-5,0.1698 -2e-5,0.33959 -10e-6,0.50938 10e-6,0.1689 10e-6,0.3378 10e-6,0.5067 0,0.14062 0,0.28123 0,0.42184 0,0 -0.89399,0.45551 -0.89399,0.45551 v 0 c 0,-0.14061 0,-0.28122 0,-0.42184 0,-0.1689 0,-0.33781 10e-6,-0.50671 2e-5,-0.1698 4e-5,-0.3396 4e-5,-0.5094 -3e-5,-0.16254 -10e-6,-0.32509 -8e-4,-0.48763 -1.5e-4,-0.0228 -2.6e-4,-0.0455 -5.3e-4,-0.0682 -1.6e-4,-0.0198 -0.0174,-0.0489 -5.3e-4,-0.0595 1.02874,-0.64689 0.90195,-0.82927 0.8948,-0.39543 -8e-4,0.16977 -0.002,0.33954 -0.002,0.50932 0.002,0.14245 -0.002,0.2911 0.0487,0.42636 0.0278,0.0391 0.048,0.0594 0.1003,0.0491 0.019,-0.004 0.0714,-0.0285 0.0549,-0.0184 -0.72061,0.43848 -1.08235,0.59641 -0.73141,0.44041 0.17445,-0.15891 0.0742,-0.41747 0.012,-0.60986 0,0 0.8778,-0.48344 0.8778,-0.48344 z"
       inkscape:connector-curvature="0" />
    <path
       style="fill:#801d00;fill-opacity:1;stroke-width:0.26458332"
       id="path90"
       d="m 4.6385775,261.29458 c -0.05399,0.24686 -0.09035,0.49796 -0.18942,0.73183 -0.05239,0.14062 -0.126746,0.26703 -0.212262,0.38931 -0.0093,0.0168 -0.01857,0.0336 -0.02786,0.0503 0,0 -0.871787,-0.50138 -0.871787,-0.50138 v 0 c 0.01101,-0.0198 0.02204,-0.0396 0.03305,-0.0594 0.08147,-0.11651 0.154784,-0.23524 0.205137,-0.36946 0.09655,-0.22424 0.13394,-0.467 0.174913,-0.70631 0,0 0.888225,0.46502 0.888225,0.46502 z"
       inkscape:connector-curvature="0" />
    <path
       style="fill:#801d00;fill-opacity:1;stroke-width:0.26458332"
       id="path92"
       d="m 4.3854635,261.29458 c -0.03531,0.28003 -0.09294,0.55642 -0.127904,0.83662 -0.02545,0.11906 -0.05689,0.23651 -0.08028,0.35602 0,0 -0.884925,-0.47365 -0.884925,-0.47365 v 0 c 0.02487,-0.11647 0.05669,-0.23114 0.08093,-0.34774 0.03935,-0.27911 0.101039,-0.55512 0.123949,-0.83627 0,0 0.888222,0.46502 0.888222,0.46502 z"
       inkscape:connector-curvature="0" />
    <path
       style="fill:#801d00;fill-opacity:1;stroke-width:0.26458332"
       id="path94"
       d="m 4.1323525,261.5477 c -0.0053,0.0447 -0.01058,0.0893 -0.01588,0.13399 0,0 -0.884319,-0.46206 -0.884319,-0.46206 v 0 c 0.004,-0.0456 0.008,-0.0913 0.01198,-0.13696 0,0 0.888223,0.46503 0.888223,0.46503 z"
       inkscape:connector-curvature="0" />
    <path
       style="fill:#801d00;fill-opacity:1;stroke-width:0.26458332"
       id="path96"
       d="m 3.3982375,257.65676 c 0.03106,0.23977 0.111482,0.46175 0.215476,0.67776 0.07468,0.15431 0.09507,0.32274 0.106075,0.49149 0.0074,0.16711 0.0057,0.33445 0.0051,0.50167 -7.94e-4,0.16871 -0.0011,0.33742 -0.0013,0.50613 0.02402,0.14746 0.09044,0.28052 0.12582,0.42551 0.03463,0.16473 0.03914,0.33347 0.04261,0.50114 0.0013,0.11291 7.93e-4,0.0565 0.0013,0.16936 0,0 -0.894284,-0.45494 -0.894284,-0.45494 v 0 c -0.0011,-0.11188 -2.3e-4,-0.056 -0.0021,-0.16764 -0.005,-0.16107 -0.01188,-0.32344 -0.05355,-0.48004 -0.04383,-0.14838 -0.112421,-0.29125 -0.113593,-0.44902 2.54e-4,-0.16876 7.93e-4,-0.33751 0.0013,-0.50626 2.64e-4,-0.16484 0.0019,-0.32991 -0.0092,-0.49447 -0.01516,-0.15944 -0.04583,-0.31478 -0.119955,-0.45867 -0.100846,-0.22547 -0.165134,-0.4629 -0.201948,-0.70727 0,0 0.898297,0.44525 0.898297,0.44525 z"
       inkscape:connector-curvature="0" />
    <path
       style="fill:#666666;fill-opacity:1;stroke-width:0.33748278"
       d="m 35.638079,295.17239 c -7.932905,-2.37021 -13.750827,-6.00341 -19.875257,-12.41178 -4.268938,-4.46686 -7.6987397,-9.95796 -10.0391247,-16.0726 -1.1035983,-2.88332 -1.1037041,-2.88421 -0.9375907,-7.77715 0.091374,-2.69142 0.00773,-6.56077 -0.1858725,-8.59855 -0.2594372,-2.73072 -0.2515579,-3.76714 0.029959,-3.94112 0.2100792,-0.12984 2.1371692,-0.58199 4.2824214,-1.00477 3.4565985,-0.68123 4.8989695,-0.7682 12.6750075,-0.76425 l 8.774554,0.004 6.580912,1.35382 c 6.007812,1.23592 6.590308,1.41792 6.688757,2.08988 0.106587,0.72749 0.184205,0.73605 6.671715,0.73605 h 6.56387 l -0.186976,-0.75933 c -0.182213,-0.73999 0.0047,-0.7962 7.333822,-2.20523 7.447592,-1.43182 7.592081,-1.44578 14.843762,-1.43431 6.44139,0.0102 11.79236,0.41158 16.300831,1.22274 l 1.012446,0.18215 -0.04369,9.00598 c -0.04301,8.86451 -0.05814,9.0484 -0.963584,11.70585 -0.505936,1.48492 -1.729808,4.26443 -2.71971,6.17667 -5.430634,10.49067 -14.252268,18.49216 -24.553963,22.2712 l -2.429986,0.8914 -13.499308,0.0863 -13.499312,0.0863 z m 34.560528,-14.17007 c 6.935649,-1.79264 10.205376,-8.00141 9.890386,-18.78052 -0.126772,-4.33816 -0.173317,-4.58146 -1.343802,-7.02409 -2.038615,-4.25431 -4.831869,-6.37753 -9.377752,-7.12826 -1.825895,-0.30154 -2.964619,-0.30092 -4.835133,0.003 -4.803034,0.77945 -8.047268,3.18469 -10.203259,7.56455 -1.013254,2.05842 -1.254945,3.01117 -1.578661,6.22316 -0.537551,5.33371 -0.04459,10.04515 1.336181,12.77043 1.683012,3.32184 4.648747,5.71644 8.081983,6.5256 2.039157,0.48058 5.859322,0.40757 8.030057,-0.1535 z m -22.886511,-3.5299 c 2.195547,-3.97396 2.235388,-4.38728 0.422902,-4.38728 -1.127969,0 -1.620533,0.24249 -2.91342,1.4343 l -1.555951,1.4343 -6.620468,0.11327 c -5.81529,0.0995 -6.558901,0.0532 -6.114242,-0.38054 0.278423,-0.27159 2.328629,-2.01167 4.556016,-3.86684 5.155967,-4.29437 9.58143,-8.89024 10.64278,-11.05261 1.149604,-2.34218 1.131496,-5.50543 -0.04469,-7.80702 -1.599123,-3.12922 -5.603184,-4.97532 -10.76683,-4.96413 -3.240897,0.007 -4.9194,0.39077 -8.155268,1.86447 l -2.249318,1.02441 -0.736324,2.97997 c -0.40498,1.63899 -0.636728,3.14113 -0.514999,3.33809 0.548085,0.88682 2.185009,0.34232 4.127278,-1.37288 2.449449,-2.1631 4.182589,-2.97685 6.360303,-2.98635 2.550792,-0.0111 4.509545,1.10313 5.519261,3.13967 0.749229,1.51114 0.777957,1.7598 0.399015,3.45309 -0.729199,3.25841 -3.368614,6.21735 -11.858156,13.2937 -6.11315,5.09554 -7.066068,6.06372 -7.066068,7.17918 v 0.94634 l 12.398435,-0.0885 12.398436,-0.0885 z"
       id="path100"
       inkscape:connector-curvature="0" />
    <path
       style="fill:#999999;fill-opacity:1;stroke-width:0.33748278"
       d="m 64.339814,277.57982 c -1.338295,-0.65949 -2.479498,-2.08722 -3.3229,-4.1572 -0.53671,-1.31726 -0.618773,-2.52571 -0.618773,-9.11203 v -7.59337 l 0.944354,-1.92306 c 1.177472,-2.39777 2.694503,-3.43772 5.014801,-3.43772 4.363003,0 6.358967,4.83462 6.358967,15.40269 0,4.42881 -0.68012,7.22339 -2.266948,9.31479 -1.489802,1.96352 -3.950189,2.56996 -6.109501,1.5059 z"
       id="path102"
       inkscape:connector-curvature="0" />
    <path
       style="fill:#999999;fill-opacity:1;stroke-width:0.33748278"
       d="M 34.696741,294.64456 C 27.543776,292.32548 23.161339,289.65183 17.508964,284.1586 12.33659,279.13186 8.8205049,273.91891 6.2841297,267.51667 l -1.3370057,-3.37483 -0.1446609,-8.84472 -0.1446609,-8.84473 2.3570511,-0.53611 c 4.1472407,-0.94326 6.9661297,-1.15862 15.3051057,-1.16927 7.442311,-0.01 8.506743,0.0637 12.149381,0.8353 6.943328,1.47081 8.552701,1.9159 8.977929,2.48296 0.358471,0.47803 1.28856,0.55237 6.910959,0.55237 5.843664,0 6.496722,-0.0566 6.496544,-0.56355 -1.48e-4,-0.41973 0.581118,-0.69546 2.277809,-1.08048 5.195311,-1.17896 11.62019,-2.20768 15.102355,-2.4181 4.008388,-0.24223 14.459818,0.25556 19.014332,0.90562 l 2.815161,0.4018 -0.142404,9.3082 c -0.159816,10.44619 -0.12134,10.24373 -3.103972,16.33259 -5.181844,10.57841 -13.568807,18.6064 -23.867962,22.84637 l -3.152225,1.29771 -13.668052,0.10871 -13.668052,0.10872 z m 37.592373,-14.28551 c 3.810923,-1.71922 6.257742,-5.14002 7.333104,-10.2521 0.772814,-3.67383 0.705644,-11.01845 -0.122311,-13.37413 -2.134241,-6.07229 -7.088783,-9.31761 -13.5333,-8.86456 -6.266566,0.44055 -10.56545,3.81754 -12.553498,9.86141 -0.680294,2.06817 -0.77707,3.03486 -0.77707,7.76211 0,6.30299 0.435335,8.22036 2.486104,10.94968 1.591305,2.11782 3.640318,3.66975 5.923698,4.48662 1.363705,0.48785 2.474553,0.58954 5.426991,0.49678 3.196317,-0.10043 4.004751,-0.24857 5.816282,-1.06581 z m -24.913188,-2.69598 c 2.136114,-3.96248 2.191925,-4.57793 0.415142,-4.57793 -0.97087,0 -1.69944,0.30392 -2.868604,1.19665 -0.861962,0.65815 -1.567606,1.30359 -1.568104,1.4343 -0.0011,0.28038 -12.018502,0.31138 -12.298156,0.0317 -0.104994,-0.105 1.382033,-1.50811 3.304503,-3.11803 4.551992,-3.81194 10.391497,-9.81554 11.39371,-11.71388 1.156486,-2.19056 1.139253,-5.96909 -0.03678,-8.06398 -1.873001,-3.33642 -5.478341,-4.91785 -11.136932,-4.88506 -3.173915,0.0184 -3.832598,0.13464 -6.314257,1.1143 -1.523878,0.60156 -3.068077,1.35083 -3.431553,1.66504 -0.401442,0.34703 -0.870437,1.5248 -1.194734,3.00029 -0.664102,3.02153 -0.668301,3.69063 -0.02471,3.9376 0.792424,0.30408 1.974175,-0.28337 4.61033,-2.29181 2.780498,-2.11841 4.668491,-2.71163 6.978338,-2.19265 1.965272,0.44157 3.005407,1.18717 3.783311,2.71199 1.918695,3.76095 -0.37433,7.36784 -9.795761,15.40857 -6.825366,5.82512 -8.447752,7.47452 -8.447752,8.5884 v 0.93864 h 12.457737 12.457737 z"
       id="path104"
       inkscape:connector-curvature="0" />
    <path
       style="fill:#801d00;fill-opacity:1;stroke-width:0.0281854"
       d=""
       id="path110"
       inkscape:connector-curvature="0"
       transform="scale(0.26458333)" />
    <path
       style="fill:#801d00;fill-opacity:1;stroke-width:0.0281854"
       d=""
       id="path112"
       inkscape:connector-curvature="0"
       transform="scale(0.26458333)" />
    <path
       style="fill:#801d00;fill-opacity:1;stroke-width:0.0281854"
       d=""
       id="path116"
       inkscape:connector-curvature="0"
       transform="scale(0.26458333)" />
  </g>
</svg>
